<svg width="24" height="24" viewBox="0 0 24 24" fill="none" xmlns="http://www.w3.org/2000/svg">
<path d="M7 6V6.5C7.16718 6.5 7.32329 6.41645 7.41603 6.27735L7 6ZM8.40627 3.8906L7.99024 3.61325V3.61325L8.40627 3.8906ZM15.5937 3.8906L16.0098 3.61325L15.5937 3.8906ZM17 6L16.584 6.27735C16.6767 6.41645 16.8328 6.5 17 6.5V6ZM15 13.5H14.5C14.5 14.8807 13.3807 16 12 16V16.5V17C13.933 17 15.5 15.433 15.5 13.5H15ZM12 16.5V16C10.6193 16 9.5 14.8807 9.5 13.5H9H8.5C8.5 15.433 10.067 17 12 17V16.5ZM9 13.5H9.5C9.5 12.1193 10.6193 11 12 11V10.5V10C10.067 10 8.5 11.567 8.5 13.5H9ZM12 10.5V11C13.3807 11 14.5 12.1193 14.5 13.5H15H15.5C15.5 11.567 13.933 10 12 10V10.5ZM7 6L7.41603 6.27735L8.82229 4.16795L8.40627 3.8906L7.99024 3.61325L6.58397 5.72265L7 6ZM10.0704 3V3.5H13.9296V3V2.5H10.0704V3ZM15.5937 3.8906L15.1777 4.16795L16.584 6.27735L17 6L17.416 5.72265L16.0098 3.61325L15.5937 3.8906ZM13.9296 3V3.5C14.4312 3.5 14.8995 3.75065 15.1777 4.16795L15.5937 3.8906L16.0098 3.61325C15.5461 2.91775 14.7655 2.5 13.9296 2.5V3ZM8.40627 3.8906L8.82229 4.16795C9.10049 3.75065 9.56884 3.5 10.0704 3.5V3V2.5C9.23449 2.5 8.45391 2.91775 7.99024 3.61325L8.40627 3.8906ZM22 10H21.5V17H22H22.5V10H22ZM18 21V20.5H6V21V21.5H18V21ZM2 17H2.5V10H2H1.5V17H2ZM6 21V20.5C4.067 20.5 2.5 18.933 2.5 17H2H1.5C1.5 19.4853 3.51472 21.5 6 21.5V21ZM22 17H21.5C21.5 18.933 19.933 20.5 18 20.5V21V21.5C20.4853 21.5 22.5 19.4853 22.5 17H22ZM18 6V6.5C19.933 6.5 21.5 8.067 21.5 10H22H22.5C22.5 7.51472 20.4853 5.5 18 5.5V6ZM6 6V5.5C3.51472 5.5 1.5 7.51472 1.5 10H2H2.5C2.5 8.067 4.067 6.5 6 6.5V6ZM6 6V6.5H7V6V5.5H6V6ZM18 6V5.5H17V6V6.5H18V6Z" fill="white"/>
<circle cx="12" cy="6" r="1" fill="white"/>
</svg>
