<svg width="20" height="15" viewBox="0 0 20 15" fill="none" xmlns="http://www.w3.org/2000/svg">
<path d="M17.2561 3.61329C17.0404 3.61329 16.8655 3.78822 16.8655 4.00392V6.35884H16.0779V5.96505C16.0779 5.10083 15.3748 4.39775 14.5106 4.39775H12.814L12.1278 2.68224C12.0684 2.53392 11.9248 2.43669 11.7651 2.43669H10.3907V0.864583H11.5689C11.7847 0.864583 11.9596 0.689661 11.9596 0.473958C11.9596 0.258255 11.7847 0.0833333 11.5689 0.0833333H6.86235C6.64664 0.0833333 6.47172 0.258255 6.47172 0.473958C6.47172 0.689661 6.64664 0.864583 6.86235 0.864583H8.04059V2.43669H6.27399C6.15102 2.43669 6.03528 2.49454 5.96149 2.59294L4.90203 4.00552H3.13621C2.27203 4.00552 1.56895 4.70861 1.56895 5.57283V7.73165H0.781331V5.76892C0.781331 5.55322 0.606449 5.37829 0.390706 5.37829C0.174964 5.37829 8.13827e-05 5.55322 8.13827e-05 5.76892V10.4756C8.13827e-05 10.6913 0.174964 10.8662 0.390706 10.8662C0.606449 10.8662 0.781331 10.6913 0.781331 10.4756V8.5129H1.56895V11.4561C1.56895 12.3203 2.27203 13.0234 3.13621 13.0234H4.90203L5.96149 14.4361C6.03528 14.5344 6.15102 14.5923 6.27399 14.5923H11.765C11.913 14.5923 12.0482 14.5087 12.1144 14.3764L12.7909 13.0234H14.5106C15.3748 13.0234 16.0779 12.3203 16.0779 11.4561V11.0623H16.8655V13.4172C16.8655 13.6329 17.0404 13.8079 17.2561 13.8079C18.7691 13.8079 20 12.5769 20 11.0639V6.35728C20.0001 4.84427 18.7691 3.61329 17.2561 3.61329ZM8.82184 0.864583H9.60946V2.43669H8.82184V0.864583ZM19.2188 11.0639C19.2188 12.0124 18.5425 12.806 17.6468 12.9876V10.6717C17.6468 10.456 17.4718 10.2811 17.2561 10.2811H15.6873C15.4716 10.2811 15.2966 10.456 15.2966 10.6717V11.4561C15.2966 11.8896 14.944 12.2422 14.5106 12.2422H12.5495C12.4016 12.2422 12.2663 12.3258 12.2002 12.4581L11.5237 13.8111H6.4693L5.40985 12.3984C5.33606 12.3001 5.22028 12.2422 5.09735 12.2422H3.13621C2.70278 12.2422 2.3502 11.8896 2.3502 11.4561V5.57283C2.3502 5.13939 2.70278 4.78677 3.13621 4.78677H5.09735C5.22028 4.78677 5.33606 4.72888 5.40985 4.63052L6.4693 3.21794H11.5006L12.1868 4.93345C12.2462 5.08177 12.3898 5.179 12.5495 5.179H14.5106C14.944 5.179 15.2966 5.53161 15.2966 5.96505V6.74947C15.2966 6.96517 15.4715 7.14009 15.6872 7.14009H17.2561C17.4718 7.14009 17.6467 6.96517 17.6467 6.74947V4.43361C18.5425 4.61521 19.2188 5.40872 19.2188 6.35728V11.0639Z" fill="#A1A1A1"/>
<path fill-rule="evenodd" clip-rule="evenodd" d="M12.1278 2.68224L12.814 4.39775H14.5106C15.3748 4.39775 16.0779 5.10083 16.0779 5.96505V6.35884H16.8655V4.00392C16.8655 3.78822 17.0404 3.61329 17.2561 3.61329C18.7691 3.61329 20.0001 4.84427 20 6.35728V11.0639C20 12.5769 18.7691 13.8079 17.2561 13.8079C17.0404 13.8079 16.8655 13.6329 16.8655 13.4172V11.0623H16.0779V11.4561C16.0779 12.3203 15.3748 13.0234 14.5106 13.0234H12.7909L12.1144 14.3764C12.0482 14.5087 11.913 14.5923 11.765 14.5923H6.27399C6.15102 14.5923 6.03528 14.5344 5.96149 14.4361L4.90203 13.0234H3.13621C2.27203 13.0234 1.56895 12.3203 1.56895 11.4561V8.5129H0.781331V10.4756C0.781331 10.6913 0.606449 10.8662 0.390706 10.8662C0.174964 10.8662 8.13827e-05 10.6913 8.13827e-05 10.4756V5.76892C8.13827e-05 5.55322 0.174964 5.37829 0.390706 5.37829C0.606449 5.37829 0.781331 5.55322 0.781331 5.76892V7.73165H1.56895V5.57283C1.56895 4.70861 2.27203 4.00552 3.13621 4.00552H4.90203L5.96149 2.59294C6.03528 2.49454 6.15102 2.43669 6.27399 2.43669H8.04059V0.864583H6.86235C6.64664 0.864583 6.47172 0.689661 6.47172 0.473958C6.47172 0.258255 6.64664 0.0833333 6.86235 0.0833333H11.5689C11.7847 0.0833333 11.9596 0.258255 11.9596 0.473958C11.9596 0.689661 11.7847 0.864583 11.5689 0.864583H10.3907V2.43669H11.7651C11.9248 2.43669 12.0684 2.53392 12.1278 2.68224ZM10.474 2.35336H11.7651C11.9589 2.35336 12.1331 2.47134 12.2051 2.65127L12.8704 4.31441H14.5106C15.4208 4.31441 16.1612 5.05481 16.1612 5.96505V6.27551H16.7822V4.00392C16.7822 3.7422 16.9944 3.52996 17.2561 3.52996C18.8152 3.52996 20.0834 4.79825 20.0834 6.35728V11.0639C20.0834 12.623 18.8151 13.8912 17.2561 13.8912C16.9943 13.8912 16.7821 13.679 16.7821 13.4172V11.1457H16.1612V11.4561C16.1612 12.3664 15.4208 13.1067 14.5106 13.1067H12.8424L12.189 14.4136C12.1087 14.5742 11.9446 14.6757 11.765 14.6757H6.27399C6.12478 14.6757 5.98435 14.6054 5.89483 14.4861L4.86037 13.1067H3.13621C2.22601 13.1067 1.48562 12.3664 1.48562 11.4561V8.59624H0.864665V10.4756C0.864665 10.7373 0.652478 10.9495 0.390706 10.9495C0.128935 10.9495 -0.083252 10.7373 -0.083252 10.4756V5.76892C-0.083252 5.5072 0.128935 5.29496 0.390706 5.29496C0.652478 5.29496 0.864665 5.5072 0.864665 5.76892V7.64832H1.48562V5.57283C1.48562 4.66258 2.22601 3.92219 3.13621 3.92219H4.86037L5.89482 2.54295C5.89482 2.54295 5.89482 2.54295 5.89482 2.54295C5.98435 2.42356 6.1248 2.35336 6.27399 2.35336H7.95726V0.947917H6.86235C6.60062 0.947917 6.38839 0.735685 6.38839 0.473958C6.38839 0.212232 6.60062 0 6.86235 0H11.5689C11.8307 0 12.0429 0.212232 12.0429 0.473958C12.0429 0.735685 11.8307 0.947917 11.5689 0.947917H10.474V2.35336ZM5.40985 12.3984L6.4693 13.8111H11.5237L12.2002 12.4581C12.2663 12.3258 12.4016 12.2422 12.5495 12.2422H14.5106C14.944 12.2422 15.2966 11.8896 15.2966 11.4561V10.6717C15.2966 10.456 15.4716 10.2811 15.6873 10.2811H17.2561C17.4718 10.2811 17.6468 10.456 17.6468 10.6717V12.9876C17.6748 12.9819 17.7025 12.9756 17.7301 12.9688C18.5841 12.7562 19.2188 11.9828 19.2188 11.0639V6.35728C19.2188 5.43837 18.5841 4.66496 17.7301 4.45241C17.7025 4.44556 17.6747 4.43928 17.6467 4.43361V6.74947C17.6467 6.96517 17.4718 7.14009 17.2561 7.14009H15.6872C15.4715 7.14009 15.2966 6.96517 15.2966 6.74947V5.96505C15.2966 5.53161 14.944 5.179 14.5106 5.179H12.5495C12.3898 5.179 12.2462 5.08177 12.1868 4.93345L11.5006 3.21794H6.4693L5.40985 4.63052C5.33606 4.72888 5.22028 4.78677 5.09735 4.78677H3.13621C2.70278 4.78677 2.3502 5.13939 2.3502 5.57283V11.4561C2.3502 11.8896 2.70278 12.2422 3.13621 12.2422H5.09735C5.22028 12.2422 5.33606 12.3001 5.40985 12.3984ZM6.51097 3.30128L5.47651 4.68052C5.38699 4.79985 5.24651 4.8701 5.09735 4.8701H3.13621C2.74881 4.8701 2.43353 5.18541 2.43353 5.57283V11.4561C2.43353 11.8436 2.7488 12.1588 3.13621 12.1588H5.09735C5.24651 12.1588 5.38699 12.2291 5.47651 12.3484L6.51097 13.7277H11.4722L12.1256 12.4208C12.2059 12.2603 12.37 12.1588 12.5495 12.1588H14.5106C14.898 12.1588 15.2133 11.8436 15.2133 11.4561V10.6717C15.2133 10.4099 15.4255 10.1977 15.6873 10.1977H17.2561C17.5179 10.1977 17.7301 10.4099 17.7301 10.6717V12.8828C18.5377 12.6722 19.1355 11.9364 19.1355 11.0639V6.35728C19.1355 5.48481 18.5377 4.749 17.7301 4.53841V6.74947C17.7301 7.01119 17.5178 7.22343 17.2561 7.22343H15.6872C15.4255 7.22343 15.2133 7.01119 15.2133 6.74947V5.96505C15.2133 5.57764 14.898 5.26233 14.5106 5.26233H12.5495C12.3557 5.26233 12.1815 5.14435 12.1094 4.96442L11.4442 3.30128H6.51097ZM9.52612 0.947917H8.90517V2.35336H9.52612V0.947917ZM8.82184 0.864583V2.43669H9.60946V0.864583H8.82184Z" fill="#A1A1A1"/>
<path d="M11.7259 7.50689H10.1946V4.39615C10.1946 4.00993 9.69114 3.85884 9.47825 4.18056L6.37973 8.86251C6.30028 8.98251 6.29328 9.13658 6.36153 9.26329C6.47743 9.47849 6.70223 9.46759 6.70614 9.46872L8.49942 9.46556L7.98438 12.5103C7.91559 12.9174 8.44727 13.1372 8.68692 12.8031L12.0432 8.12517C12.1286 8.00619 12.1402 7.84939 12.0734 7.71908C12.0065 7.58884 11.8723 7.50689 11.7259 7.50689ZM9.03621 10.9762L9.34696 9.13935C9.36614 9.02587 9.3343 8.90966 9.25992 8.82181C9.13278 8.67161 8.96504 8.68447 8.9611 8.68357L7.43321 8.68622L9.41332 5.69419V7.89751C9.41332 8.11322 9.58821 8.28814 9.80395 8.28814H10.9648L9.03621 10.9762Z" fill="#A1A1A1"/>
<path fill-rule="evenodd" clip-rule="evenodd" d="M6.70614 9.46872C6.70588 9.46865 6.70466 9.46863 6.70258 9.46859C6.67307 9.46805 6.46979 9.4643 6.36153 9.26329C6.29328 9.13658 6.30028 8.98251 6.37973 8.86251L9.47825 4.18056C9.69114 3.85884 10.1946 4.00993 10.1946 4.39615V7.50689H11.7259C11.8723 7.50689 12.0065 7.58884 12.0734 7.71908C12.1402 7.84939 12.1286 8.00619 12.0432 8.12517L8.68692 12.8031C8.44727 13.1372 7.91559 12.9174 7.98438 12.5103L8.49942 9.46556L6.70614 9.46872ZM8.40077 9.54907L6.69437 9.55208L6.69309 9.55171L6.69211 9.55168C6.68382 9.5514 6.67222 9.55078 6.6581 9.54927C6.63002 9.54628 6.59163 9.53974 6.54889 9.52514C6.46252 9.49564 6.3582 9.43285 6.28816 9.30281C6.20535 9.14905 6.21383 8.96212 6.31025 8.81651L9.40875 4.13457C9.66716 3.74406 10.2779 3.92723 10.2779 4.39615V7.42356H11.7259C11.9036 7.42356 12.0663 7.52299 12.1475 7.68099C12.2286 7.83908 12.2146 8.02937 12.1109 8.17376L8.75463 12.8517C8.46383 13.257 7.81861 12.9911 7.90221 12.4964L8.40077 9.54907ZM9.34696 9.13935L9.03621 10.9762L10.9648 8.28814H9.80395C9.58821 8.28814 9.41332 8.11322 9.41332 7.89751V5.69419L7.43321 8.68622L8.9611 8.68357C8.96138 8.68363 8.96253 8.68363 8.96446 8.68361C8.98916 8.68346 9.142 8.68251 9.25992 8.82181C9.3343 8.90966 9.36614 9.02587 9.34696 9.13935ZM7.58846 8.60262L9.32999 5.97111V7.89751C9.32999 8.15924 9.54218 8.37147 9.80395 8.37147H10.8025L9.17845 10.635L9.42912 9.15325C9.45239 9.01557 9.41377 8.87456 9.32353 8.76796C9.24679 8.67732 9.15699 8.63532 9.08594 8.61622C9.0506 8.60673 9.01984 8.60285 8.99734 8.60129C8.98625 8.60052 8.97717 8.60032 8.97064 8.60028L7.58846 8.60262Z" fill="#A1A1A1"/>
</svg>
