<svg width="18" height="18" viewBox="0 0 18 18" fill="none" xmlns="http://www.w3.org/2000/svg">
<path d="M4.875 16.5V11.25" stroke="black" stroke-width="1.5" stroke-miterlimit="10" stroke-linecap="round" stroke-linejoin="round"/>
<path d="M4.875 3.75V1.5" stroke="black" stroke-width="1.5" stroke-miterlimit="10" stroke-linecap="round" stroke-linejoin="round"/>
<path d="M13.125 16.5V14.25" stroke="black" stroke-width="1.5" stroke-miterlimit="10" stroke-linecap="round" stroke-linejoin="round"/>
<path d="M13.125 6.75V1.5" stroke="black" stroke-width="1.5" stroke-miterlimit="10" stroke-linecap="round" stroke-linejoin="round"/>
<path d="M7.125 5.25V9.75C7.125 10.575 6.75 11.25 5.625 11.25H4.125C3 11.25 2.625 10.575 2.625 9.75V5.25C2.625 4.425 3 3.75 4.125 3.75H5.625C6.75 3.75 7.125 4.425 7.125 5.25Z" stroke="black" stroke-width="1.5" stroke-miterlimit="10" stroke-linecap="round" stroke-linejoin="round"/>
<path d="M15.375 8.25V12.75C15.375 13.575 15 14.25 13.875 14.25H12.375C11.25 14.25 10.875 13.575 10.875 12.75V8.25C10.875 7.425 11.25 6.75 12.375 6.75H13.875C15 6.75 15.375 7.425 15.375 8.25Z" stroke="black" stroke-width="1.5" stroke-miterlimit="10" stroke-linecap="round" stroke-linejoin="round"/>
</svg>
