<svg width="20" height="19" viewBox="0 0 20 19" fill="none" xmlns="http://www.w3.org/2000/svg">
<path d="M10.4688 13.8168V9.84589H17.4219C17.5669 9.84589 17.706 9.78827 17.8086 9.68571C17.9111 9.58315 17.9688 9.44405 17.9688 9.29901V4.7812C18.5481 4.64692 19.0577 4.3042 19.4006 3.81835C19.7435 3.33249 19.8956 2.73747 19.8281 2.14665C19.7605 1.55584 19.4779 1.01054 19.0342 0.614663C18.5904 0.218784 18.0165 0 17.4219 0C16.8272 0 16.2533 0.218784 15.8096 0.614663C15.3659 1.01054 15.0833 1.55584 15.0157 2.14665C14.9481 2.73747 15.1003 3.33249 15.4432 3.81835C15.786 4.3042 16.2957 4.64692 16.875 4.7812V8.75214H10.4688V4.7812C11.0481 4.64692 11.5577 4.3042 11.9006 3.81835C12.2435 3.33249 12.3956 2.73747 12.3281 2.14665C12.2605 1.55584 11.9779 1.01054 11.5342 0.614663C11.0904 0.218784 10.5165 0 9.92188 0C9.32722 0 8.75334 0.218784 8.3096 0.614663C7.86586 1.01054 7.58327 1.55584 7.51569 2.14665C7.44812 2.73747 7.60027 3.33249 7.94316 3.81835C8.28605 4.3042 8.7957 4.64692 9.37501 4.7812V8.75214H2.96876V4.7812C3.54806 4.64692 4.05772 4.3042 4.4006 3.81835C4.74349 3.33249 4.89564 2.73747 4.82807 2.14665C4.76049 1.55584 4.47791 1.01054 4.03417 0.614663C3.59043 0.218784 3.01655 0 2.42188 0C1.82722 0 1.25334 0.218784 0.809595 0.614663C0.365854 1.01054 0.0832719 1.55584 0.0156945 2.14665C-0.0518828 2.73747 0.100269 3.33249 0.443157 3.81835C0.786045 4.3042 1.2957 4.64692 1.87501 4.7812V13.8168C1.2957 13.9511 0.786045 14.2938 0.443157 14.7797C0.100269 15.2655 -0.0518828 15.8606 0.0156945 16.4514C0.0832719 17.0422 0.365854 17.5875 0.809595 17.9834C1.25334 18.3792 1.82722 18.598 2.42188 18.598C3.01655 18.598 3.59043 18.3792 4.03417 17.9834C4.47791 17.5875 4.76049 17.0422 4.82807 16.4514C4.89564 15.8606 4.74349 15.2655 4.4006 14.7797C4.05772 14.2938 3.54806 13.9511 2.96876 13.8168V9.84589H9.37501V13.8168C8.7957 13.9511 8.28605 14.2938 7.94316 14.7797C7.60027 15.2655 7.44812 15.8606 7.51569 16.4514C7.58327 17.0422 7.86586 17.5875 8.3096 17.9834C8.75334 18.3792 9.32722 18.598 9.92188 18.598C10.5165 18.598 11.0904 18.3792 11.5342 17.9834C11.9779 17.5875 12.2605 17.0422 12.3281 16.4514C12.3956 15.8606 12.2435 15.2655 11.9006 14.7797C11.5577 14.2938 11.0481 13.9511 10.4688 13.8168ZM16.0938 2.42401C16.0938 2.16133 16.1716 1.90455 16.3176 1.68614C16.4635 1.46773 16.6709 1.29751 16.9136 1.19698C17.1563 1.09646 17.4234 1.07016 17.681 1.12141C17.9386 1.17265 18.1753 1.29914 18.361 1.48488C18.5467 1.67063 18.6732 1.90728 18.7245 2.16491C18.7757 2.42254 18.7494 2.68958 18.6489 2.93226C18.5484 3.17495 18.3782 3.38237 18.1597 3.52831C17.9413 3.67424 17.6846 3.75214 17.4219 3.75214C17.0698 3.75172 16.7322 3.61166 16.4832 3.36268C16.2342 3.1137 16.0942 2.77612 16.0938 2.42401ZM8.59376 2.42401C8.59376 2.16133 8.67165 1.90455 8.81759 1.68614C8.96352 1.46773 9.17095 1.29751 9.41363 1.19698C9.65631 1.09646 9.92335 1.07016 10.181 1.12141C10.4386 1.17265 10.6753 1.29914 10.861 1.48488C11.0467 1.67063 11.1732 1.90728 11.2245 2.16491C11.2757 2.42254 11.2494 2.68958 11.1489 2.93226C11.0484 3.17495 10.8782 3.38237 10.6597 3.52831C10.4413 3.67424 10.1846 3.75214 9.92188 3.75214C9.56977 3.75172 9.23219 3.61166 8.98321 3.36268C8.73423 3.1137 8.59417 2.77612 8.59376 2.42401ZM1.09376 2.42401C1.09376 2.16133 1.17165 1.90455 1.31759 1.68614C1.46352 1.46773 1.67095 1.29751 1.91363 1.19698C2.15631 1.09646 2.42335 1.07016 2.68098 1.12141C2.93862 1.17265 3.17527 1.29914 3.36101 1.48488C3.54675 1.67063 3.67324 1.90728 3.72449 2.16491C3.77573 2.42254 3.74943 2.68958 3.64891 2.93226C3.54839 3.17495 3.37816 3.38237 3.15975 3.52831C2.94134 3.67424 2.68456 3.75214 2.42188 3.75214C2.06977 3.75172 1.73219 3.61166 1.48321 3.36268C1.23423 3.1137 1.09417 2.77612 1.09376 2.42401ZM3.75001 16.174C3.75001 16.4367 3.67211 16.6935 3.52618 16.9119C3.38024 17.1303 3.17282 17.3005 2.93013 17.401C2.68745 17.5016 2.42041 17.5279 2.16278 17.4766C1.90515 17.4254 1.6685 17.2989 1.48275 17.1131C1.29701 16.9274 1.17052 16.6907 1.11928 16.4331C1.06803 16.1755 1.09433 15.9084 1.19485 15.6658C1.29538 15.4231 1.46561 15.2157 1.68401 15.0697C1.90242 14.9238 2.1592 14.8459 2.42188 14.8459C2.77399 14.8463 3.11157 14.9864 3.36055 15.2353C3.60953 15.4843 3.74959 15.8219 3.75001 16.174ZM9.92188 17.5021C9.6592 17.5021 9.40242 17.4242 9.18401 17.2783C8.96561 17.1324 8.79538 16.9249 8.69485 16.6823C8.59433 16.4396 8.56803 16.1725 8.61928 15.9149C8.67052 15.6573 8.79701 15.4206 8.98275 15.2349C9.1685 15.0491 9.40515 14.9227 9.66278 14.8714C9.92041 14.8202 10.1874 14.8465 10.4301 14.947C10.6728 15.0475 10.8802 15.2177 11.0262 15.4361C11.1721 15.6546 11.25 15.9113 11.25 16.174C11.2496 16.5261 11.1095 16.8637 10.8606 17.1127C10.6116 17.3617 10.274 17.5017 9.92188 17.5021Z" fill="#A1A1A1"/>
<path d="M17.4219 13.7521C16.9429 13.7521 16.4746 13.8942 16.0764 14.1603C15.6781 14.4264 15.3677 14.8047 15.1844 15.2472C15.0011 15.6897 14.9531 16.1767 15.0465 16.6465C15.14 17.1163 15.3707 17.5478 15.7094 17.8865C16.0481 18.2252 16.4796 18.4559 16.9494 18.5493C17.4192 18.6428 17.9062 18.5948 18.3487 18.4115C18.7912 18.2282 19.1695 17.9178 19.4356 17.5195C19.7017 17.1213 19.8438 16.653 19.8438 16.174C19.843 15.5319 19.5876 14.9163 19.1336 14.4623C18.6796 14.0083 18.064 13.7529 17.4219 13.7521ZM17.4219 17.5021C17.1592 17.5021 16.9024 17.4242 16.684 17.2783C16.4656 17.1324 16.2954 16.9249 16.1949 16.6823C16.0943 16.4396 16.068 16.1725 16.1193 15.9149C16.1705 15.6573 16.297 15.4206 16.4828 15.2349C16.6685 15.0491 16.9051 14.9227 17.1628 14.8714C17.4204 14.8202 17.6874 14.8465 17.9301 14.947C18.1728 15.0475 18.3802 15.2177 18.5262 15.4361C18.6721 15.6546 18.75 15.9113 18.75 16.174C18.7496 16.5261 18.6095 16.8637 18.3605 17.1127C18.1116 17.3617 17.774 17.5017 17.4219 17.5021Z" fill="#A1A1A1"/>
</svg>
