<svg width="20" height="20" viewBox="0 0 20 20" fill="none" xmlns="http://www.w3.org/2000/svg">
<g clip-path="url(#clip0_10791_18229)">
<path d="M10.3833 18.9579C10.2417 18.9579 10.1 18.9579 9.95833 18.9496C5.29167 18.7413 1.39167 14.9829 1.06667 10.3996C0.783333 6.46627 3.05833 2.79127 6.725 1.24961C7.76667 0.816274 8.31667 1.14961 8.55 1.39127C8.78333 1.62461 9.10833 2.16627 8.675 3.15794C8.29167 4.04127 8.1 4.98294 8.10833 5.94961C8.125 9.64127 11.1917 12.7746 14.9333 12.9246C15.475 12.9496 16.0083 12.9079 16.525 12.8163C17.625 12.6163 18.0833 13.0579 18.2583 13.3413C18.4333 13.6246 18.6333 14.2329 17.9667 15.1329C16.2 17.5496 13.3917 18.9579 10.3833 18.9579ZM2.30833 10.3079C2.59167 14.2746 5.975 17.5246 10.0083 17.6996C12.75 17.8329 15.35 16.5829 16.95 14.3996C17.075 14.2246 17.1333 14.0996 17.1583 14.0329C17.0833 14.0246 16.95 14.0163 16.7417 14.0579C16.1333 14.1663 15.5 14.2079 14.875 14.1829C10.475 14.0079 6.875 10.3163 6.85 5.96627C6.85 4.81627 7.075 3.70794 7.53333 2.66627C7.61667 2.48294 7.63333 2.35794 7.64167 2.29127C7.56667 2.29127 7.43333 2.30794 7.21667 2.39961C4.04167 3.73294 2.075 6.91627 2.30833 10.3079Z" fill="black"/>
</g>
<defs>
<clipPath id="clip0_10791_18229">
<rect width="20" height="20" fill="white"/>
</clipPath>
</defs>
</svg>
