<svg width="15" height="20" viewBox="0 0 15 20" fill="none" xmlns="http://www.w3.org/2000/svg">
<mask id="path-1-outside-1_10780_14294" maskUnits="userSpaceOnUse" x="-0.799805" y="-0.800049" width="16" height="21" fill="black">
<rect fill="white" x="-0.799805" y="-0.800049" width="16" height="21"/>
<path d="M11.4651 19.1189H3.47046V14.4892H11.4651V19.1189ZM4.011 18.5783H10.9245V15.0297H4.011V18.5783Z"/>
<path d="M11.3894 19.1189H11.184L11.2056 18.5783C13.6948 18.6783 14.0542 16.6189 14.0678 16.5324V16.5027C14.5759 14.6108 13.2894 14.227 13.2353 14.2135C12.3921 13.9432 11.3921 14.9405 11.384 14.9513L10.9948 14.5729C11.0461 14.5216 12.2272 13.3243 13.3867 13.6946C13.8312 13.8366 14.2076 14.1378 14.4434 14.5405C14.7651 15.081 14.8164 15.7919 14.5948 16.6324C14.5569 16.8594 14.0569 19.1189 11.3894 19.1189ZM3.54614 19.1189C0.878568 19.1189 0.378568 16.8594 0.335324 16.6297C0.113703 15.7892 0.165054 15.0865 0.486676 14.5378C0.727398 14.1284 1.11331 13.8245 1.56776 13.6865C2.7137 13.3189 3.89208 14.5189 3.94343 14.5702L3.55424 14.9486C3.55424 14.9486 2.55695 13.9378 1.71641 14.2054C1.64884 14.2243 0.365054 14.5973 0.87046 16.5V16.5297C0.883973 16.6162 1.24073 18.6756 3.73262 18.5756L3.75424 19.1162L3.54614 19.1189Z"/>
<path d="M12.9678 13.9838C12.9326 13.8486 12.1164 10.6432 12.3353 7.85943V7.82699C12.3812 7.55826 12.3735 7.28312 12.3128 7.01736C12.252 6.7516 12.1393 6.50045 11.9813 6.27834C11.6245 5.85402 11.0137 5.6324 10.1705 5.6324H4.76505C3.91641 5.6324 3.30559 5.85402 2.94614 6.28916C2.78993 6.51205 2.67921 6.76357 2.62031 7.0293C2.56141 7.29504 2.55549 7.56978 2.60289 7.8378V7.87024C2.82181 10.654 2.00559 13.8594 1.97046 13.9946L1.44614 13.8594C1.44614 13.827 2.27046 10.6162 2.06505 7.91348C2.00602 7.56965 2.017 7.21744 2.09734 6.87796C2.17769 6.53847 2.32574 6.2187 2.53262 5.9378C3.00019 5.37024 3.75424 5.08105 4.77316 5.08105H10.1705C11.1894 5.08105 11.9434 5.37024 12.411 5.9378C12.6184 6.22045 12.7662 6.54223 12.8457 6.88368C12.9251 7.22512 12.9345 7.57913 12.8732 7.92429C12.6678 10.627 13.4813 13.827 13.4921 13.8702L12.9678 13.9838Z"/>
<path d="M10.4597 15.0297H4.47587V5.36213H5.01641V14.4892H9.91911V5.36213H10.4597V15.0297Z"/>
<path d="M4.74614 9.09726H10.1894V9.6378H4.74614V9.09726ZM9.00019 5.6324H5.93533V3.94051H9.00019V5.6324ZM6.47587 5.09186H8.45965V4.48105H6.47587V5.09186Z"/>
<path d="M9.53803 4.48105H5.39749C5.26044 4.48109 5.12492 4.45226 4.99976 4.39644C4.8746 4.34062 4.7626 4.25905 4.67107 4.15706C4.57953 4.05507 4.5105 3.93494 4.46849 3.80449C4.42647 3.67404 4.41241 3.53621 4.42722 3.39997L4.65965 1.07294C4.68448 0.832591 4.79785 0.610082 4.9777 0.44872C5.15755 0.287357 5.391 0.198686 5.63262 0.199965H9.30289C9.54578 0.198879 9.78029 0.288681 9.96034 0.451719C10.1404 0.614757 10.2529 0.83924 10.2759 1.08105L10.5083 3.40537C10.5231 3.54161 10.509 3.67945 10.467 3.80989C10.425 3.94034 10.356 4.06047 10.2644 4.16246C10.1729 4.26446 10.0609 4.34602 9.93575 4.40184C9.81059 4.45767 9.67507 4.48649 9.53803 4.48645V4.48105ZM5.63262 0.740505C5.52433 0.739969 5.41973 0.779831 5.33927 0.852302C5.2588 0.924772 5.20825 1.02464 5.19749 1.1324L4.96505 3.45942C4.95817 3.52018 4.96424 3.5817 4.98287 3.63994C5.00151 3.69817 5.03228 3.75179 5.07316 3.79726C5.11414 3.84257 5.1642 3.87873 5.22007 3.90341C5.27595 3.92809 5.3364 3.94073 5.39749 3.94051H9.53803C9.59911 3.94073 9.65956 3.92809 9.71544 3.90341C9.77132 3.87873 9.82137 3.84257 9.86235 3.79726C9.90323 3.75179 9.934 3.69817 9.95264 3.63994C9.97128 3.5817 9.97735 3.52018 9.97046 3.45942L9.73803 1.1351C9.7279 1.02686 9.67762 0.926329 9.59709 0.8533C9.51656 0.780271 9.41161 0.740033 9.30289 0.740505H5.63262Z"/>
</mask>
<path d="M11.4651 19.1189H3.47046V14.4892H11.4651V19.1189ZM4.011 18.5783H10.9245V15.0297H4.011V18.5783Z" fill="#A1A1A1"/>
<path d="M11.3894 19.1189H11.184L11.2056 18.5783C13.6948 18.6783 14.0542 16.6189 14.0678 16.5324V16.5027C14.5759 14.6108 13.2894 14.227 13.2353 14.2135C12.3921 13.9432 11.3921 14.9405 11.384 14.9513L10.9948 14.5729C11.0461 14.5216 12.2272 13.3243 13.3867 13.6946C13.8312 13.8366 14.2076 14.1378 14.4434 14.5405C14.7651 15.081 14.8164 15.7919 14.5948 16.6324C14.5569 16.8594 14.0569 19.1189 11.3894 19.1189ZM3.54614 19.1189C0.878568 19.1189 0.378568 16.8594 0.335324 16.6297C0.113703 15.7892 0.165054 15.0865 0.486676 14.5378C0.727398 14.1284 1.11331 13.8245 1.56776 13.6865C2.7137 13.3189 3.89208 14.5189 3.94343 14.5702L3.55424 14.9486C3.55424 14.9486 2.55695 13.9378 1.71641 14.2054C1.64884 14.2243 0.365054 14.5973 0.87046 16.5V16.5297C0.883973 16.6162 1.24073 18.6756 3.73262 18.5756L3.75424 19.1162L3.54614 19.1189Z" fill="#A1A1A1"/>
<path d="M12.9678 13.9838C12.9326 13.8486 12.1164 10.6432 12.3353 7.85943V7.82699C12.3812 7.55826 12.3735 7.28312 12.3128 7.01736C12.252 6.7516 12.1393 6.50045 11.9813 6.27834C11.6245 5.85402 11.0137 5.6324 10.1705 5.6324H4.76505C3.91641 5.6324 3.30559 5.85402 2.94614 6.28916C2.78993 6.51205 2.67921 6.76357 2.62031 7.0293C2.56141 7.29504 2.55549 7.56978 2.60289 7.8378V7.87024C2.82181 10.654 2.00559 13.8594 1.97046 13.9946L1.44614 13.8594C1.44614 13.827 2.27046 10.6162 2.06505 7.91348C2.00602 7.56965 2.017 7.21744 2.09734 6.87796C2.17769 6.53847 2.32574 6.2187 2.53262 5.9378C3.00019 5.37024 3.75424 5.08105 4.77316 5.08105H10.1705C11.1894 5.08105 11.9434 5.37024 12.411 5.9378C12.6184 6.22045 12.7662 6.54223 12.8457 6.88368C12.9251 7.22512 12.9345 7.57913 12.8732 7.92429C12.6678 10.627 13.4813 13.827 13.4921 13.8702L12.9678 13.9838Z" fill="#A1A1A1"/>
<path d="M10.4597 15.0297H4.47587V5.36213H5.01641V14.4892H9.91911V5.36213H10.4597V15.0297Z" fill="#A1A1A1"/>
<path d="M4.74614 9.09726H10.1894V9.6378H4.74614V9.09726ZM9.00019 5.6324H5.93533V3.94051H9.00019V5.6324ZM6.47587 5.09186H8.45965V4.48105H6.47587V5.09186Z" fill="#A1A1A1"/>
<path d="M9.53803 4.48105H5.39749C5.26044 4.48109 5.12492 4.45226 4.99976 4.39644C4.8746 4.34062 4.7626 4.25905 4.67107 4.15706C4.57953 4.05507 4.5105 3.93494 4.46849 3.80449C4.42647 3.67404 4.41241 3.53621 4.42722 3.39997L4.65965 1.07294C4.68448 0.832591 4.79785 0.610082 4.9777 0.44872C5.15755 0.287357 5.391 0.198686 5.63262 0.199965H9.30289C9.54578 0.198879 9.78029 0.288681 9.96034 0.451719C10.1404 0.614757 10.2529 0.83924 10.2759 1.08105L10.5083 3.40537C10.5231 3.54161 10.509 3.67945 10.467 3.80989C10.425 3.94034 10.356 4.06047 10.2644 4.16246C10.1729 4.26446 10.0609 4.34602 9.93575 4.40184C9.81059 4.45767 9.67507 4.48649 9.53803 4.48645V4.48105ZM5.63262 0.740505C5.52433 0.739969 5.41973 0.779831 5.33927 0.852302C5.2588 0.924772 5.20825 1.02464 5.19749 1.1324L4.96505 3.45942C4.95817 3.52018 4.96424 3.5817 4.98287 3.63994C5.00151 3.69817 5.03228 3.75179 5.07316 3.79726C5.11414 3.84257 5.1642 3.87873 5.22007 3.90341C5.27595 3.92809 5.3364 3.94073 5.39749 3.94051H9.53803C9.59911 3.94073 9.65956 3.92809 9.71544 3.90341C9.77132 3.87873 9.82137 3.84257 9.86235 3.79726C9.90323 3.75179 9.934 3.69817 9.95264 3.63994C9.97128 3.5817 9.97735 3.52018 9.97046 3.45942L9.73803 1.1351C9.7279 1.02686 9.67762 0.926329 9.59709 0.8533C9.51656 0.780271 9.41161 0.740033 9.30289 0.740505H5.63262Z" fill="#A1A1A1"/>
<path d="M11.4651 19.1189H3.47046V14.4892H11.4651V19.1189ZM4.011 18.5783H10.9245V15.0297H4.011V18.5783Z" stroke="#A1A1A1" stroke-width="0.4" mask="url(#path-1-outside-1_10780_14294)"/>
<path d="M11.3894 19.1189H11.184L11.2056 18.5783C13.6948 18.6783 14.0542 16.6189 14.0678 16.5324V16.5027C14.5759 14.6108 13.2894 14.227 13.2353 14.2135C12.3921 13.9432 11.3921 14.9405 11.384 14.9513L10.9948 14.5729C11.0461 14.5216 12.2272 13.3243 13.3867 13.6946C13.8312 13.8366 14.2076 14.1378 14.4434 14.5405C14.7651 15.081 14.8164 15.7919 14.5948 16.6324C14.5569 16.8594 14.0569 19.1189 11.3894 19.1189ZM3.54614 19.1189C0.878568 19.1189 0.378568 16.8594 0.335324 16.6297C0.113703 15.7892 0.165054 15.0865 0.486676 14.5378C0.727398 14.1284 1.11331 13.8245 1.56776 13.6865C2.7137 13.3189 3.89208 14.5189 3.94343 14.5702L3.55424 14.9486C3.55424 14.9486 2.55695 13.9378 1.71641 14.2054C1.64884 14.2243 0.365054 14.5973 0.87046 16.5V16.5297C0.883973 16.6162 1.24073 18.6756 3.73262 18.5756L3.75424 19.1162L3.54614 19.1189Z" stroke="#A1A1A1" stroke-width="0.4" mask="url(#path-1-outside-1_10780_14294)"/>
<path d="M12.9678 13.9838C12.9326 13.8486 12.1164 10.6432 12.3353 7.85943V7.82699C12.3812 7.55826 12.3735 7.28312 12.3128 7.01736C12.252 6.7516 12.1393 6.50045 11.9813 6.27834C11.6245 5.85402 11.0137 5.6324 10.1705 5.6324H4.76505C3.91641 5.6324 3.30559 5.85402 2.94614 6.28916C2.78993 6.51205 2.67921 6.76357 2.62031 7.0293C2.56141 7.29504 2.55549 7.56978 2.60289 7.8378V7.87024C2.82181 10.654 2.00559 13.8594 1.97046 13.9946L1.44614 13.8594C1.44614 13.827 2.27046 10.6162 2.06505 7.91348C2.00602 7.56965 2.017 7.21744 2.09734 6.87796C2.17769 6.53847 2.32574 6.2187 2.53262 5.9378C3.00019 5.37024 3.75424 5.08105 4.77316 5.08105H10.1705C11.1894 5.08105 11.9434 5.37024 12.411 5.9378C12.6184 6.22045 12.7662 6.54223 12.8457 6.88368C12.9251 7.22512 12.9345 7.57913 12.8732 7.92429C12.6678 10.627 13.4813 13.827 13.4921 13.8702L12.9678 13.9838Z" stroke="#A1A1A1" stroke-width="0.4" mask="url(#path-1-outside-1_10780_14294)"/>
<path d="M10.4597 15.0297H4.47587V5.36213H5.01641V14.4892H9.91911V5.36213H10.4597V15.0297Z" stroke="#A1A1A1" stroke-width="0.4" mask="url(#path-1-outside-1_10780_14294)"/>
<path d="M4.74614 9.09726H10.1894V9.6378H4.74614V9.09726ZM9.00019 5.6324H5.93533V3.94051H9.00019V5.6324ZM6.47587 5.09186H8.45965V4.48105H6.47587V5.09186Z" stroke="#A1A1A1" stroke-width="0.4" mask="url(#path-1-outside-1_10780_14294)"/>
<path d="M9.53803 4.48105H5.39749C5.26044 4.48109 5.12492 4.45226 4.99976 4.39644C4.8746 4.34062 4.7626 4.25905 4.67107 4.15706C4.57953 4.05507 4.5105 3.93494 4.46849 3.80449C4.42647 3.67404 4.41241 3.53621 4.42722 3.39997L4.65965 1.07294C4.68448 0.832591 4.79785 0.610082 4.9777 0.44872C5.15755 0.287357 5.391 0.198686 5.63262 0.199965H9.30289C9.54578 0.198879 9.78029 0.288681 9.96034 0.451719C10.1404 0.614757 10.2529 0.83924 10.2759 1.08105L10.5083 3.40537C10.5231 3.54161 10.509 3.67945 10.467 3.80989C10.425 3.94034 10.356 4.06047 10.2644 4.16246C10.1729 4.26446 10.0609 4.34602 9.93575 4.40184C9.81059 4.45767 9.67507 4.48649 9.53803 4.48645V4.48105ZM5.63262 0.740505C5.52433 0.739969 5.41973 0.779831 5.33927 0.852302C5.2588 0.924772 5.20825 1.02464 5.19749 1.1324L4.96505 3.45942C4.95817 3.52018 4.96424 3.5817 4.98287 3.63994C5.00151 3.69817 5.03228 3.75179 5.07316 3.79726C5.11414 3.84257 5.1642 3.87873 5.22007 3.90341C5.27595 3.92809 5.3364 3.94073 5.39749 3.94051H9.53803C9.59911 3.94073 9.65956 3.92809 9.71544 3.90341C9.77132 3.87873 9.82137 3.84257 9.86235 3.79726C9.90323 3.75179 9.934 3.69817 9.95264 3.63994C9.97128 3.5817 9.97735 3.52018 9.97046 3.45942L9.73803 1.1351C9.7279 1.02686 9.67762 0.926329 9.59709 0.8533C9.51656 0.780271 9.41161 0.740033 9.30289 0.740505H5.63262Z" stroke="#A1A1A1" stroke-width="0.4" mask="url(#path-1-outside-1_10780_14294)"/>
</svg>
