<svg width="20" height="20" viewBox="0 0 20 20" fill="none" xmlns="http://www.w3.org/2000/svg">
<path d="M8.74167 1.8583L4.58333 3.42497C3.625 3.7833 2.84167 4.91663 2.84167 5.9333V12.125C2.84167 13.1083 3.49167 14.4 4.28333 14.9916L7.86667 17.6666C9.04167 18.55 10.975 18.55 12.15 17.6666L15.7333 14.9916C16.525 14.4 17.175 13.1083 17.175 12.125V5.9333C17.175 4.9083 16.3917 3.77497 15.4333 3.41663L11.275 1.8583C10.5667 1.59997 9.43333 1.59997 8.74167 1.8583Z" stroke="#222222" stroke-width="1.5" stroke-linecap="round" stroke-linejoin="round"/>
<path d="M10 10.4168C10.9205 10.4168 11.6667 9.67064 11.6667 8.75016C11.6667 7.82969 10.9205 7.0835 10 7.0835C9.07953 7.0835 8.33334 7.82969 8.33334 8.75016C8.33334 9.67064 9.07953 10.4168 10 10.4168Z" stroke="#222222" stroke-width="1.5" stroke-miterlimit="10" stroke-linecap="round" stroke-linejoin="round"/>
<path d="M10 10.4165V12.9165" stroke="#222222" stroke-width="1.5" stroke-miterlimit="10" stroke-linecap="round" stroke-linejoin="round"/>
</svg>
