<svg width="22" height="22" viewBox="0 0 22 22" fill="none" xmlns="http://www.w3.org/2000/svg">
<path fill-rule="evenodd" clip-rule="evenodd" d="M22 10.7171C22 16.6347 17.1649 21.4332 11.2004 21.4332C9.30631 21.4332 7.52674 20.9495 5.97972 20.0997L0 22L1.94913 16.2507C0.965551 14.6355 0.39997 12.7414 0.39997 10.7171C0.39997 4.79815 5.23508 0 11.2004 0C17.1649 0 22 4.79815 22 10.7171ZM11.2004 1.70684C6.19239 1.70684 2.11994 5.74811 2.11994 10.7171C2.11994 12.6876 2.7619 14.5139 3.84939 15.9998L2.71548 19.3453L6.2043 18.2368C7.63767 19.1773 9.35519 19.7264 11.2004 19.7264C16.2064 19.7264 20.28 15.6848 20.28 10.7171C20.28 5.74811 16.2064 1.70684 11.2004 1.70684ZM16.654 13.1853C16.5871 13.0756 16.4105 13.0099 16.1468 12.8786C15.8819 12.7475 14.5796 12.1113 14.3373 12.0242C14.095 11.9368 13.9171 11.8928 13.7417 12.1553C13.5651 12.4181 13.0576 13.0099 12.9027 13.1853C12.7487 13.361 12.5947 13.3824 12.3298 13.251C12.0646 13.12 11.2111 12.8416 10.2004 11.9478C9.41386 11.2506 8.88249 10.3913 8.72727 10.1285C8.57358 9.86607 8.712 9.72399 8.84309 9.59291C8.96257 9.47465 9.10829 9.28615 9.24061 9.13337C9.37322 8.97936 9.41722 8.86935 9.50553 8.69399C9.59383 8.51857 9.54984 8.36582 9.48292 8.23442C9.41722 8.10334 8.88739 6.81054 8.66647 6.28406C8.44708 5.75912 8.22616 5.77872 8.07095 5.77872C7.91694 5.77872 7.6312 5.8245 7.6312 5.8245C7.6312 5.8245 7.1005 5.8902 6.8582 6.15298C6.61589 6.41546 5.93205 7.05161 5.93205 8.3432C5.93205 9.6357 6.87989 10.8854 7.01219 11.0596C7.14481 11.2353 8.84309 13.9743 11.5347 15.026C14.2264 16.0774 14.2264 15.7266 14.7119 15.6823C15.1965 15.6396 16.2779 15.0474 16.4988 14.4338C16.7197 13.8203 16.7197 13.2941 16.654 13.1853Z" fill="white" style="fill:white;fill-opacity:1;"/>
</svg>
